<svg width="34" height="34" xmlns="http://www.w3.org/2000/svg">
 <defs>
  <clipPath id="clipPath60" clipPathUnits="userSpaceOnUse">
   <path id="path58" d="m0,792l1224,0l0,-792l-1224,0l0,792z"/>
  </clipPath>
 </defs>
 <metadata id="metadata400">image/svg+xml</metadata>
 <g>
  <title>background</title>
  <rect fill="none" id="canvas_background" height="36" width="36" y="-1" x="-1"/>
 </g>
 <g>
  <title>Layer 1</title>
  <g id="layer1">
   <path clip-rule="nonzero" fill="#3d383e" fill-rule="nonzero" stroke-width="3" stroke-miterlimit="4" stroke-dashoffset="0" id="path1460" d="m16.95674,-0.000007c-9.34797,0 -16.95674,7.61124 -16.95674,16.95711c0,9.34587 7.60877,16.9571 16.95674,16.9571c9.34797,0 16.95726,-7.61123 16.95726,-16.9571c0,-2.72656 -0.65166,-5.30333 -1.80113,-7.58869l-2.25851,2.24586c0.67929,1.64481 1.05552,3.4483 1.05552,5.34283c0,7.72682 -6.2308,13.95677 -13.95314,13.95677c-7.72234,0 -13.95263,-6.22995 -13.95263,-13.95677c0,-7.72681 6.23029,-13.95729 13.95263,-13.95729c3.52838,0 6.74298,1.30377 9.19654,3.45354l2.12037,-2.10943c-3.00407,-2.69837 -6.97212,-4.34393 -11.31691,-4.34393z"/>
   <g fill="#e74c3c" transform="matrix(0.35277777,0,0,-0.35277777,53.317613,159.84387) " id="g70"/>
   <path fill="#e74c3c" fill-rule="nonzero" stroke-width="0.352778" id="path72" d="m27.69075,13.724623l-2.46591,2.46592c0.02399,0.26317 0.03704,0.52987 0.03704,0.79869c0,4.64749 -3.78319,8.43068 -8.43104,8.43068c-4.64926,0 -8.43104,-3.78319 -8.43104,-8.43068c0,-4.6482 3.78178,-8.43104 8.43104,-8.43104c2.01189,0 3.86221,0.70908 5.31389,1.8923l2.0634,-2.06446c-1.98261,-1.70603 -4.56389,-2.73685 -7.37729,-2.73685c-6.25263,0 -11.34004,5.08706 -11.34004,11.34005c0,6.25228 5.08741,11.33968 11.34004,11.33968c6.25263,0 11.33969,-5.0874 11.33969,-11.33968c0,-1.13489 -0.16757,-2.23027 -0.47978,-3.26461"/>
   <g fill="#e74c3c" transform="matrix(0.35277777,0,0,-0.35277777,54.68498,151.32418) " id="g74">
    <path fill="#e74c3c" fill-rule="nonzero" id="path76" d="m-72.643066,414.196289c2.584,-2.666 4.851,-5.619 6.748,-8.799l-41.266,-41.265l-19.978,19.978l7.779,7.773l12.199,-12.203l34.518,34.516z"/>
   </g>
   <g fill="#e74c3c" id="g1464" transform="matrix(0.35277777,0,0,-0.35277777,54.68498,151.32418) ">
    <path fill="#e74c3c" fill-rule="nonzero" d="m-72.643066,414.196289c2.584,-2.666 4.851,-5.619 6.748,-8.799l-41.266,-41.265l-19.978,19.978l7.779,7.773l12.199,-12.203l34.518,34.516z" id="path1462"/>
   </g>
  </g>
 </g>
</svg>